<mxfile host="app.diagrams.net" modified="2024-07-11T22:42:13.641Z" agent="Mozilla/5.0 (X11; Ubuntu; Linux x86_64; rv:127.0) Gecko/20100101 Firefox/127.0" etag="tKYwQFXQHT7A8SsVkXdY" version="24.6.4" type="device">
  <diagram name="Página-1" id="XGo4QF6mYdpmztNutad-">
    <mxGraphModel dx="1196" dy="479" grid="1" gridSize="10" guides="1" tooltips="1" connect="1" arrows="1" fold="1" page="1" pageScale="1" pageWidth="827" pageHeight="1169" math="0" shadow="0">
      <root>
        <mxCell id="0" />
        <mxCell id="1" parent="0" />
        <mxCell id="E5vyAwLDSGxeVuyTleDd-69" style="edgeStyle=orthogonalEdgeStyle;rounded=0;orthogonalLoop=1;jettySize=auto;html=1;exitX=0.5;exitY=1;exitDx=0;exitDy=0;" edge="1" parent="1" source="E5vyAwLDSGxeVuyTleDd-62" target="E5vyAwLDSGxeVuyTleDd-66">
          <mxGeometry relative="1" as="geometry" />
        </mxCell>
        <mxCell id="E5vyAwLDSGxeVuyTleDd-62" value="&lt;div&gt;&lt;font style=&quot;font-size: 18px;&quot;&gt;Asistente Virtual&lt;/font&gt;&lt;/div&gt;&lt;div&gt;&lt;font size=&quot;3&quot;&gt;&quot;Ultron&quot;&lt;br&gt;&lt;/font&gt;&lt;/div&gt;" style="rounded=1;arcSize=10;whiteSpace=wrap;html=1;align=center;fillColor=#7EA6E0;" vertex="1" parent="1">
          <mxGeometry x="690" y="280" width="140" height="90" as="geometry" />
        </mxCell>
        <mxCell id="E5vyAwLDSGxeVuyTleDd-64" value="&lt;font style=&quot;font-size: 18px;&quot;&gt;Juego&lt;/font&gt;" style="rounded=1;arcSize=10;whiteSpace=wrap;html=1;align=center;" vertex="1" parent="1">
          <mxGeometry x="460" y="485" width="100" height="40" as="geometry" />
        </mxCell>
        <mxCell id="E5vyAwLDSGxeVuyTleDd-66" value="" style="verticalLabelPosition=bottom;verticalAlign=top;html=1;shape=mxgraph.flowchart.on-page_reference;" vertex="1" parent="1">
          <mxGeometry x="720" y="470" width="80" height="70" as="geometry" />
        </mxCell>
        <mxCell id="E5vyAwLDSGxeVuyTleDd-67" value="&lt;font style=&quot;font-size: 14px;&quot;&gt;Seleccion de Juegos&lt;/font&gt;" style="text;html=1;align=center;verticalAlign=middle;whiteSpace=wrap;rounded=0;" vertex="1" parent="1">
          <mxGeometry x="730" y="490" width="60" height="30" as="geometry" />
        </mxCell>
        <mxCell id="E5vyAwLDSGxeVuyTleDd-68" value="" style="endArrow=block;startArrow=block;endFill=1;startFill=1;html=1;rounded=0;" edge="1" parent="1">
          <mxGeometry width="160" relative="1" as="geometry">
            <mxPoint x="560" y="504.5" as="sourcePoint" />
            <mxPoint x="720" y="504.5" as="targetPoint" />
          </mxGeometry>
        </mxCell>
        <mxCell id="E5vyAwLDSGxeVuyTleDd-72" value="" style="verticalLabelPosition=bottom;verticalAlign=top;html=1;shape=mxgraph.flowchart.on-page_reference;" vertex="1" parent="1">
          <mxGeometry x="490" y="340" width="120" height="110" as="geometry" />
        </mxCell>
        <mxCell id="E5vyAwLDSGxeVuyTleDd-73" value="&lt;font style=&quot;font-size: 14px;&quot;&gt;Solicita detalles del recordatorio&lt;/font&gt;" style="text;html=1;align=center;verticalAlign=middle;whiteSpace=wrap;rounded=0;" vertex="1" parent="1">
          <mxGeometry x="500" y="370" width="100" height="50" as="geometry" />
        </mxCell>
        <mxCell id="E5vyAwLDSGxeVuyTleDd-74" style="edgeStyle=orthogonalEdgeStyle;rounded=0;orthogonalLoop=1;jettySize=auto;html=1;exitX=0;exitY=0.75;exitDx=0;exitDy=0;entryX=1;entryY=0.5;entryDx=0;entryDy=0;entryPerimeter=0;" edge="1" parent="1" source="E5vyAwLDSGxeVuyTleDd-62" target="E5vyAwLDSGxeVuyTleDd-72">
          <mxGeometry relative="1" as="geometry" />
        </mxCell>
        <mxCell id="E5vyAwLDSGxeVuyTleDd-77" value="" style="verticalLabelPosition=bottom;verticalAlign=top;html=1;shape=mxgraph.flowchart.on-page_reference;" vertex="1" parent="1">
          <mxGeometry x="490" y="190" width="120" height="110" as="geometry" />
        </mxCell>
        <mxCell id="E5vyAwLDSGxeVuyTleDd-78" value="&lt;font style=&quot;font-size: 14px;&quot;&gt;Solicita detalles del recordatorio&lt;/font&gt;" style="text;html=1;align=center;verticalAlign=middle;whiteSpace=wrap;rounded=0;" vertex="1" parent="1">
          <mxGeometry x="500" y="220" width="100" height="50" as="geometry" />
        </mxCell>
        <mxCell id="E5vyAwLDSGxeVuyTleDd-80" value="Añadir" style="text;html=1;align=center;verticalAlign=middle;whiteSpace=wrap;rounded=0;" vertex="1" parent="1">
          <mxGeometry x="610" y="185" width="100" height="50" as="geometry" />
        </mxCell>
        <mxCell id="E5vyAwLDSGxeVuyTleDd-81" value="" style="endArrow=block;startArrow=block;endFill=1;startFill=1;html=1;rounded=0;" edge="1" parent="1">
          <mxGeometry width="160" relative="1" as="geometry">
            <mxPoint x="330" y="240" as="sourcePoint" />
            <mxPoint x="490" y="240" as="targetPoint" />
          </mxGeometry>
        </mxCell>
        <mxCell id="E5vyAwLDSGxeVuyTleDd-82" value="" style="endArrow=block;startArrow=block;endFill=1;startFill=1;html=1;rounded=0;" edge="1" parent="1">
          <mxGeometry width="160" relative="1" as="geometry">
            <mxPoint x="330" y="400" as="sourcePoint" />
            <mxPoint x="490" y="400" as="targetPoint" />
          </mxGeometry>
        </mxCell>
        <mxCell id="E5vyAwLDSGxeVuyTleDd-83" style="edgeStyle=orthogonalEdgeStyle;rounded=0;orthogonalLoop=1;jettySize=auto;html=1;exitX=0;exitY=0.25;exitDx=0;exitDy=0;entryX=1;entryY=0.5;entryDx=0;entryDy=0;entryPerimeter=0;" edge="1" parent="1" source="E5vyAwLDSGxeVuyTleDd-62" target="E5vyAwLDSGxeVuyTleDd-77">
          <mxGeometry relative="1" as="geometry" />
        </mxCell>
        <mxCell id="E5vyAwLDSGxeVuyTleDd-84" value="&lt;font style=&quot;font-size: 18px;&quot;&gt;Recordatorios&lt;/font&gt;" style="rounded=1;arcSize=10;whiteSpace=wrap;html=1;align=center;" vertex="1" parent="1">
          <mxGeometry x="210" y="380" width="120" height="40" as="geometry" />
        </mxCell>
        <mxCell id="E5vyAwLDSGxeVuyTleDd-85" value="&lt;font style=&quot;font-size: 18px;&quot;&gt;Alarma&lt;/font&gt;" style="rounded=1;arcSize=10;whiteSpace=wrap;html=1;align=center;" vertex="1" parent="1">
          <mxGeometry x="220" y="220" width="110" height="50" as="geometry" />
        </mxCell>
        <mxCell id="E5vyAwLDSGxeVuyTleDd-86" value="Jugar" style="text;html=1;align=center;verticalAlign=middle;whiteSpace=wrap;rounded=0;" vertex="1" parent="1">
          <mxGeometry x="610" y="470" width="60" height="30" as="geometry" />
        </mxCell>
        <mxCell id="E5vyAwLDSGxeVuyTleDd-87" value="Presentar opciones" style="text;html=1;align=center;verticalAlign=middle;whiteSpace=wrap;rounded=0;" vertex="1" parent="1">
          <mxGeometry x="770" y="400" width="60" height="30" as="geometry" />
        </mxCell>
        <mxCell id="E5vyAwLDSGxeVuyTleDd-88" value="Agregar" style="text;html=1;align=center;verticalAlign=middle;whiteSpace=wrap;rounded=0;" vertex="1" parent="1">
          <mxGeometry x="610" y="390" width="100" height="50" as="geometry" />
        </mxCell>
        <mxCell id="E5vyAwLDSGxeVuyTleDd-89" value="Guarda" style="text;html=1;align=center;verticalAlign=middle;whiteSpace=wrap;rounded=0;" vertex="1" parent="1">
          <mxGeometry x="384" y="410" width="60" height="30" as="geometry" />
        </mxCell>
        <mxCell id="E5vyAwLDSGxeVuyTleDd-90" value="Guarda" style="text;html=1;align=center;verticalAlign=middle;whiteSpace=wrap;rounded=0;" vertex="1" parent="1">
          <mxGeometry x="384" y="210" width="60" height="30" as="geometry" />
        </mxCell>
      </root>
    </mxGraphModel>
  </diagram>
</mxfile>
